<svg width="260" height="80" viewBox="0 0 260 80" xmlns="http://www.w3.org/2000/svg">
  <!-- C Logo - Hexagonal style -->
  <g transform="translate(10, 10)">
    <!-- Outer C shape -->
    <path d="M 40,5 L 55,5 L 65,15 L 65,25 L 55,25 L 55,15 L 40,15 L 30,25 L 30,35 L 40,45 L 55,45 L 55,35 L 65,35 L 65,45 L 55,55 L 40,55 L 20,45 L 10,35 L 10,25 L 20,15 L 40,5 Z" 
          fill="none" 
          stroke="#00D4FF" 
          stroke-width="6"
          stroke-linejoin="round"
          stroke-linecap="round"/>
    
    <!-- Inner C highlight -->
    <path d="M 40,5 L 55,5 L 65,15 L 65,25 L 55,25" 
          fill="none" 
          stroke="#00D4FF" 
          stroke-width="3"
          opacity="0.6"/>
    
    <path d="M 65,35 L 65,45 L 55,55 L 40,55" 
          fill="none" 
          stroke="#00D4FF" 
          stroke-width="3"
          opacity="0.6"/>
  </g>
  
  <!-- Cognia Text -->
  <g transform="translate(85, 0)">
    <text y="50" font-family="-apple-system, BlinkMacSystemFont, 'Segoe UI', Roboto, Arial, sans-serif" font-size="46" font-weight="600" fill="#FFFFFF">Cognia</text>
  </g>
</svg> 