<svg width="64" height="64" viewBox="0 0 64 64" fill="none" xmlns="http://www.w3.org/2000/svg">
<path d="M26.88 2.95603C30.0483 1.12683 33.9517 1.12683 37.12 2.95603L54.5928 13.044C57.7611 14.8732 59.7128 18.2537 59.7128 21.9121V42.0879C59.7128 45.7463 57.7611 49.1268 54.5928 50.956L37.12 61.044C33.9517 62.8732 30.0483 62.8732 26.88 61.044L9.40719 50.956C6.23892 49.1268 4.28719 45.7463 4.28719 42.0879V21.9121C4.28719 18.2537 6.23892 14.8732 9.40719 13.044L26.88 2.95603Z" fill="#ECFBFF"/>
<path d="M29.4402 4.67846C31.0243 3.76386 32.9761 3.76386 34.5602 4.67846L54.3817 16.1224C55.9659 17.037 56.9417 18.7273 56.9417 20.5565V43.4444C56.9417 45.2736 55.9659 46.9639 54.3817 47.8785L34.5602 59.3224C32.9761 60.237 31.0243 60.237 29.4402 59.3224L9.61867 47.8785C8.03453 46.9639 7.05866 45.2736 7.05866 43.4444V20.5565C7.05866 18.7273 8.03453 17.037 9.61866 16.1224L29.4402 4.67846Z" fill="#007CF5"/>
<path d="M18.8067 52.5768C15.4624 52.5768 13.5513 49.3192 15.2633 46.4107C17.6919 42.3775 20.2798 38.383 22.788 34.3886L35.8071 13.6797C36.8422 12.0509 38.0765 10.7711 40.1866 10.8875C43.4513 11.0814 45.1235 14.3777 43.292 17.3251C39.4699 23.5688 35.5284 29.7349 31.6267 35.9011C28.6805 40.6323 25.6944 45.3248 22.7482 50.0561C21.8325 51.5297 20.6779 52.538 18.8067 52.5768Z" fill="url(#paint0_linear_606_5959)" fill-opacity="0.05"/>
<path d="M53.6834 30.1227C51.5334 33.7294 49.2243 37.2584 46.9947 40.8262C44.5263 44.7043 42.0976 48.6212 39.6292 52.4605C37.9968 55.02 35.6876 55.718 33.4979 54.3607C31.3878 53.081 30.9896 50.7153 32.5026 48.2721C37.1209 40.9426 41.7393 33.613 46.3577 26.2447C47.2734 24.771 48.4678 23.7627 50.339 23.8015C53.6436 23.8015 55.475 27.1366 53.7232 30.084L53.6834 30.1227Z" fill="url(#paint1_linear_606_5959)" fill-opacity="0.05"/>
<path d="M10.7245 26.012C12.1578 23.4137 13.7902 20.9317 15.5022 18.4885C16.7364 16.7046 19.1252 16.3168 20.9566 17.4026C22.8677 18.4885 23.5843 20.8154 22.4695 22.7544C20.9964 25.2751 19.4039 27.6796 17.8114 30.1227C17.0549 31.2862 15.8605 31.8291 14.467 31.8291C11.3217 31.8291 9.25144 28.7266 10.7245 26.012Z" fill="url(#paint2_linear_606_5959)" fill-opacity="0.05"/>
<path d="M35.4286 14.0861C35.3321 13.7879 35.0787 13.5749 34.7686 13.5296L33.3619 13.325L32.7322 12.0502V12.0497C32.5933 11.7689 32.3125 11.5947 31.9994 11.5947C31.6863 11.5947 31.4051 11.7694 31.2662 12.0507L30.637 13.3255L29.2298 13.5301C28.9197 13.5754 28.6668 13.7889 28.5698 14.0866C28.4732 14.3848 28.5523 14.7058 28.7768 14.9249L29.7948 15.9174L29.5544 17.3187C29.5016 17.6278 29.6265 17.9339 29.8799 18.1181C30.1328 18.3023 30.4623 18.3257 30.7406 18.1803L31.9994 17.5183L33.2578 18.1798C33.3788 18.243 33.5092 18.2744 33.6391 18.2744C33.8079 18.2744 33.9756 18.2216 34.119 18.1176C34.3728 17.9334 34.4973 17.6273 34.444 17.3182L34.2041 15.9169L35.2225 14.9244C35.447 14.7053 35.5257 14.3843 35.4286 14.0861Z" fill="#086CD9"/>
<path d="M35.429 48.1066C35.333 47.808 35.0796 47.5949 34.769 47.5496L33.3623 47.345L32.7326 46.0702C32.5942 45.789 32.313 45.6143 31.9994 45.6143C31.6862 45.6143 31.405 45.789 31.2661 46.0702L30.6369 47.345L29.2292 47.5496C28.9191 47.5949 28.6662 47.809 28.5697 48.1066C28.4731 48.4048 28.5527 48.7254 28.7767 48.9439L29.7947 49.937L29.5543 51.3382C29.5015 51.6473 29.6264 51.9534 29.8798 52.1376C30.0232 52.2417 30.1909 52.2944 30.3592 52.2944C30.4891 52.2944 30.6195 52.2631 30.7405 52.1993L31.9998 51.5383L33.2582 52.1998C33.5345 52.3457 33.865 52.3228 34.1184 52.1381C34.3728 51.9539 34.4972 51.6478 34.4439 51.3387L34.204 49.9374L35.2225 48.9444C35.447 48.7254 35.5261 48.4048 35.429 48.1066Z" fill="#086CD9"/>
<path d="M16.4994 31.0964C16.4029 30.7982 16.1495 30.5851 15.8394 30.5398L14.4322 30.3353L13.803 29.0599C13.6641 28.7792 13.3829 28.605 13.0697 28.605C12.7566 28.605 12.4754 28.7797 12.3365 29.0609L11.7073 30.3357L10.3001 30.5403C9.99 30.5856 9.73713 30.7992 9.64007 31.0969C9.5435 31.395 9.62264 31.7161 9.84714 31.9346L10.8651 32.9277L10.6247 34.3289C10.5719 34.638 10.6968 34.9442 10.9502 35.1283C11.0936 35.2324 11.2613 35.2851 11.4296 35.2851C11.5595 35.2851 11.6899 35.2538 11.8109 35.1901L13.0693 34.5285L14.3276 35.1901C14.6054 35.3369 14.9354 35.313 15.1883 35.1283C15.4422 34.9442 15.5666 34.638 15.5138 34.3289L15.2744 32.9272L16.2924 31.9346C16.5169 31.7161 16.596 31.395 16.4994 31.0964Z" fill="#086CD9"/>
<path d="M54.3589 31.0959C54.2623 30.7977 54.009 30.5847 53.6989 30.5394L52.2921 30.3348L51.6624 29.06C51.5241 28.7792 51.2428 28.604 50.9292 28.604C50.6156 28.604 50.3349 28.7787 50.196 29.06L49.5663 30.3348L48.1596 30.5394C47.8495 30.5847 47.5961 30.7977 47.4995 31.0959C47.403 31.394 47.4816 31.7151 47.7061 31.9341L48.7246 32.9267L48.4846 34.3279C48.4319 34.6371 48.5563 34.9432 48.8102 35.1274C48.953 35.2314 49.1208 35.2842 49.2895 35.2842C49.4195 35.2842 49.5499 35.2528 49.6708 35.1891L50.9292 34.5275L52.1876 35.1891C52.4639 35.3349 52.7949 35.312 53.0478 35.1274C53.3021 34.9432 53.4266 34.6371 53.3733 34.3279L53.1334 32.9267L54.1518 31.9336C54.3768 31.7151 54.456 31.394 54.3589 31.0959Z" fill="#086CD9"/>
<path d="M26.1391 16.6222C26.0425 16.3241 25.7891 16.111 25.479 16.0657L24.0718 15.8616L23.4426 14.5868C23.3037 14.3061 23.023 14.1313 22.7094 14.1313C22.3963 14.1313 22.1151 14.3061 21.9762 14.5873L21.347 15.8621L19.9398 16.0662C19.6297 16.1115 19.3768 16.3251 19.2797 16.6227C19.1831 16.9209 19.2623 17.242 19.4868 17.4605L20.5047 18.453L20.2643 19.8548C20.2116 20.1639 20.3365 20.47 20.5899 20.6542C20.7332 20.7583 20.901 20.811 21.0692 20.811C21.1991 20.811 21.3296 20.7797 21.4505 20.7164L22.7089 20.0549L23.9673 20.7164C24.2455 20.8628 24.5751 20.8394 24.8279 20.6547C25.0818 20.4705 25.2062 20.1639 25.1535 19.8553L24.9131 18.4535L25.931 17.461C26.1565 17.2415 26.2357 16.9204 26.1391 16.6222Z" fill="#086CD9"/>
<path d="M44.8941 16.6227C44.7975 16.3246 44.5441 16.1115 44.234 16.0662L42.8273 15.8621L42.1981 14.5873C42.0592 14.3061 41.778 14.1313 41.4644 14.1313C41.1508 14.1313 40.87 14.3061 40.7307 14.5873L40.1015 15.8621L38.6947 16.0662C38.3846 16.1115 38.1313 16.3246 38.0347 16.6227C37.9381 16.9209 38.0168 17.242 38.2413 17.461L39.2597 18.4535L39.0198 19.8553C38.967 20.1644 39.0915 20.4705 39.3453 20.6547C39.4882 20.7587 39.656 20.8115 39.8247 20.8115C39.9546 20.8115 40.085 20.7802 40.2055 20.7169L41.4644 20.0554L42.7228 20.7169C42.9995 20.8628 43.3295 20.8399 43.5834 20.6552C43.8378 20.471 43.9622 20.1649 43.909 19.8558L43.669 18.454L44.6875 17.4615C44.912 17.2415 44.9906 16.9204 44.8941 16.6227Z" fill="#086CD9"/>
<path d="M26.1385 45.1452C26.0419 44.847 25.7891 44.6335 25.478 44.5882L24.0708 44.3836L23.4416 43.1088C23.3027 42.8276 23.0219 42.6528 22.7083 42.6528C22.3952 42.6528 22.114 42.8276 21.9751 43.1088L21.3459 44.3836L19.9382 44.5882C19.6281 44.6335 19.3752 44.8475 19.2787 45.1452C19.1821 45.4434 19.2617 45.7639 19.4857 45.9825L20.5037 46.9755L20.2633 48.3768C20.2105 48.6859 20.3354 48.992 20.5888 49.1762C20.7322 49.2802 20.8999 49.333 21.0682 49.333C21.1981 49.333 21.3285 49.3016 21.4495 49.2379L22.7078 48.5764L23.9662 49.2379C24.2445 49.3848 24.574 49.3604 24.8269 49.1762C25.0807 48.992 25.2052 48.6859 25.1524 48.3768L24.912 46.9755L25.9295 45.983C26.1554 45.7639 26.2351 45.4434 26.1385 45.1452Z" fill="#086CD9"/>
<path d="M44.894 45.1452C44.7979 44.8465 44.5445 44.6335 44.2339 44.5882L42.8272 44.3836L42.198 43.1088C42.0591 42.828 41.7779 42.6528 41.4643 42.6528C41.1507 42.6528 40.8699 42.828 40.7306 43.1088L40.1014 44.3836L38.6942 44.5882C38.384 44.6335 38.1307 44.847 38.0346 45.1452C37.938 45.4434 38.0172 45.7639 38.2412 45.9825L39.2596 46.9755L39.0197 48.3768C38.9669 48.6859 39.0914 48.992 39.3453 49.1762C39.4881 49.2802 39.6559 49.333 39.8246 49.333C39.9545 49.333 40.085 49.3016 40.2059 49.2379L41.4643 48.5764L42.7227 49.2379C42.9994 49.3838 43.3295 49.3609 43.5833 49.1762C43.8377 48.992 43.9621 48.6859 43.9089 48.3768L43.6689 46.9755L44.6874 45.9825C44.9114 45.7639 44.9905 45.4434 44.894 45.1452Z" fill="#086CD9"/>
<rect x="4.48047" y="26.2405" width="55.04" height="11.52" fill="#ECFBFF"/>
<path d="M25.7566 31.0293H24.4932C24.3976 30.7007 24.2274 30.4499 23.9825 30.2766C23.7436 30.1034 23.4538 30.0168 23.1134 30.0168C22.7789 30.0168 22.4892 30.1064 22.2442 30.2856C22.0053 30.4588 21.8201 30.7097 21.6887 31.0382C21.5633 31.3608 21.5006 31.7491 21.5006 32.203C21.5006 32.657 21.5663 33.0453 21.6977 33.3678C21.8291 33.6904 22.0173 33.9383 22.2622 34.1115C22.513 34.2847 22.8117 34.3714 23.1582 34.3714C23.409 34.3714 23.639 34.3206 23.8481 34.219C24.0572 34.1175 24.2274 33.9622 24.3588 33.7531C24.4902 33.5381 24.5709 33.2633 24.6007 32.9288H25.1742C25.1742 33.4843 25.0816 33.9443 24.8964 34.3086C24.7112 34.667 24.4574 34.9358 24.1348 35.115C23.8182 35.2883 23.4538 35.3749 23.0417 35.3749C22.4802 35.3749 21.9904 35.2465 21.5722 34.9896C21.1601 34.7327 20.8375 34.3684 20.6046 33.8965C20.3776 33.4246 20.2641 32.8601 20.2641 32.203C20.2641 31.546 20.3806 30.9815 20.6135 30.5096C20.8465 30.0317 21.178 29.6644 21.6081 29.4075C22.0382 29.1447 22.5519 29.0133 23.1492 29.0133C23.5733 29.0133 23.9646 29.0909 24.323 29.2462C24.6814 29.3956 24.986 29.6196 25.2369 29.9182C25.4937 30.2169 25.667 30.5873 25.7566 31.0293ZM25.7476 35.2405H24.9054L24.6007 32.9288H23.2836V32.0149H25.7476V35.2405ZM26.8402 35.2405V29.1477H28.0498V35.2405H26.8402ZM29.0533 34.2638C29.4475 34.2638 29.782 34.1832 30.0568 34.0219C30.3376 33.8547 30.5526 33.6187 30.7019 33.3141C30.8513 33.0035 30.9259 32.6331 30.9259 32.203C30.9259 31.767 30.8513 31.3937 30.7019 31.083C30.5526 30.7724 30.3376 30.5365 30.0568 30.3752C29.782 30.2079 29.4475 30.1243 29.0533 30.1243H27.7182V29.1477H29.0533C29.6924 29.1477 30.242 29.2701 30.7019 29.515C31.1678 29.7599 31.5262 30.1094 31.7771 30.5634C32.028 31.0173 32.1534 31.5639 32.1534 32.203C32.1534 32.8362 32.028 33.3798 31.7771 33.8338C31.5262 34.2877 31.1678 34.6372 30.7019 34.8821C30.242 35.121 29.6924 35.2405 29.0533 35.2405H27.7182V34.2638H29.0533ZM33.1577 35.2405V29.1477H34.3673V35.2405H33.1577ZM35.4425 33.1618H34.0357V32.203H35.3797C35.768 32.203 36.0607 32.1075 36.2578 31.9163C36.4549 31.7252 36.5535 31.4713 36.5535 31.1547C36.5535 30.8322 36.452 30.5783 36.2489 30.3931C36.0517 30.202 35.771 30.1064 35.4066 30.1064H34.0357V29.1477H35.4245C35.9144 29.1477 36.3355 29.2283 36.6879 29.3896C37.0403 29.5509 37.3121 29.7809 37.5033 30.0795C37.6944 30.3722 37.79 30.7276 37.79 31.1458C37.79 31.7849 37.5779 32.2807 37.1538 32.6331C36.7297 32.9855 36.1593 33.1618 35.4425 33.1618ZM38.6964 35.2405V29.1477H39.906V35.2405H38.6964ZM41.1873 32.651H39.5745V31.9253H41.026C41.3665 31.9253 41.6233 31.8417 41.7966 31.6744C41.9758 31.5071 42.0654 31.2861 42.0654 31.0114C42.0654 30.7366 41.9758 30.5186 41.7966 30.3573C41.6233 30.19 41.3755 30.1064 41.0529 30.1064H39.5745V29.1477H41.0798C41.7607 29.1477 42.3013 29.309 42.7015 29.6315C43.1017 29.9541 43.3019 30.3931 43.3019 30.9486C43.3019 31.5101 43.1107 31.9342 42.7284 32.221C42.3461 32.5077 41.8324 32.651 41.1873 32.651ZM42.3163 35.2405L41.9579 33.6277C41.9101 33.4186 41.8473 33.2603 41.7697 33.1528C41.698 33.0393 41.5995 32.9646 41.474 32.9288C41.3486 32.893 41.1843 32.875 40.9812 32.875H39.7716V32.1134H41.1515C41.5636 32.1134 41.8981 32.1523 42.155 32.2299C42.4118 32.3076 42.6149 32.439 42.7643 32.6242C42.9196 32.8093 43.036 33.0692 43.1137 33.4037L43.5707 35.2405H42.3163Z" fill="#00060C"/>
<defs>
<linearGradient id="paint0_linear_606_5959" x1="45.9697" y1="5.8218" x2="10.2402" y2="55.0401" gradientUnits="userSpaceOnUse">
<stop stop-color="white"/>
<stop offset="1" stop-color="white"/>
</linearGradient>
<linearGradient id="paint1_linear_606_5959" x1="45.9697" y1="5.8218" x2="10.2402" y2="55.0401" gradientUnits="userSpaceOnUse">
<stop stop-color="white"/>
<stop offset="1" stop-color="white"/>
</linearGradient>
<linearGradient id="paint2_linear_606_5959" x1="45.9697" y1="5.8218" x2="10.2402" y2="55.0401" gradientUnits="userSpaceOnUse">
<stop stop-color="white"/>
<stop offset="1" stop-color="white"/>
</linearGradient>
</defs>
</svg>
