<svg width="64" height="64" viewBox="0 0 64 64" fill="none" xmlns="http://www.w3.org/2000/svg">
<path d="M26.88 2.95603C30.0483 1.12683 33.9517 1.12683 37.12 2.95603L54.5928 13.044C57.7611 14.8732 59.7128 18.2537 59.7128 21.9121V42.0879C59.7128 45.7463 57.7611 49.1268 54.5928 50.956L37.12 61.044C33.9517 62.8732 30.0483 62.8732 26.88 61.044L9.40719 50.956C6.23892 49.1268 4.28719 45.7463 4.28719 42.0879V21.9121C4.28719 18.2537 6.23892 14.8732 9.40719 13.044L26.88 2.95603Z" fill="#ECFBFF"/>
<path d="M29.4402 4.67797C31.0243 3.76337 32.9761 3.76337 34.5602 4.67797L54.3817 16.1219C55.9659 17.0365 56.9417 18.7268 56.9417 20.556V43.4439C56.9417 45.2731 55.9659 46.9634 54.3817 47.878L34.5602 59.3219C32.9761 60.2365 31.0243 60.2365 29.4402 59.3219L9.61867 47.878C8.03453 46.9634 7.05866 45.2731 7.05866 43.4439V20.556C7.05866 18.7268 8.03453 17.0365 9.61866 16.1219L29.4402 4.67797Z" fill="#007CF5"/>
<path d="M18.8067 52.5766C15.4624 52.5766 13.5513 49.319 15.2633 46.4104C17.6919 42.3772 20.2798 38.3828 22.788 34.3884L35.8071 13.6794C36.8422 12.0507 38.0765 10.7709 40.1866 10.8872C43.4513 11.0811 45.1235 14.3775 43.292 17.3248C39.4699 23.5685 35.5284 29.7347 31.6267 35.9008C28.6805 40.6321 25.6944 45.3246 22.7482 50.0558C21.8325 51.5295 20.6779 52.5378 18.8067 52.5766Z" fill="url(#paint0_linear_606_5934)" fill-opacity="0.05"/>
<path d="M53.6834 30.1225C51.5334 33.7291 49.2243 37.2582 46.9947 40.826C44.5263 44.7041 42.0976 48.6209 39.6292 52.4602C37.9968 55.0197 35.6876 55.7178 33.4979 54.3605C31.3878 53.0807 30.9896 50.7151 32.5026 48.2719C37.1209 40.9423 41.7393 33.6128 46.3577 26.2444C47.2734 24.7707 48.4678 23.7624 50.339 23.8012C53.6436 23.8012 55.475 27.1364 53.7232 30.0837L53.6834 30.1225Z" fill="url(#paint1_linear_606_5934)" fill-opacity="0.05"/>
<path d="M10.7245 26.0117C12.1578 23.4134 13.7902 20.9315 15.5022 18.4883C16.7364 16.7043 19.1252 16.3165 20.9566 17.4024C22.8677 18.4883 23.5843 20.8151 22.4695 22.7541C20.9964 25.2749 19.4039 27.6793 17.8114 30.1225C17.0549 31.2859 15.8605 31.8288 14.467 31.8288C11.3217 31.8288 9.25144 28.7264 10.7245 26.0117Z" fill="url(#paint2_linear_606_5934)" fill-opacity="0.05"/>
<path d="M32.1025 49.2047C32.1186 50.3285 32.1347 51.1474 32.1508 51.5488C32.1669 51.5969 32.1669 51.6611 32.1508 51.7093C32.1508 51.7735 32.1508 51.8217 32.1508 51.8217C32.1508 52.0465 32.183 52.2713 32.2474 52.48C32.3118 52.2713 32.344 52.0465 32.344 51.8217C32.344 51.7414 32.3763 50.5694 32.4246 48.6909C32.4085 48.7069 32.3924 48.723 32.3924 48.7391C32.2796 48.8835 32.183 49.0441 32.1025 49.2047ZM28.7525 25.7637C29.0102 25.4908 29.2518 25.1697 29.4289 24.8325C29.3001 25.1215 28.8008 26.2133 29.284 26.3096C29.8155 26.4059 30.4114 26.2454 31.4904 24.8807C31.4582 23.1306 31.426 21.6054 31.4099 20.4494H30.8301C30.7979 20.4494 30.7818 20.4494 30.7496 20.4494C30.4275 20.4494 29.896 20.4173 29.5417 19.8874C29.1551 19.3094 29.139 18.7154 29.1229 18.2819C29.1068 17.6557 28.9458 16.5158 28.1566 15.8736C27.609 15.4401 26.1273 15.1029 24.7583 15.6488C24.3073 15.8254 23.4054 16.291 22.5196 16.7245C21.7143 17.1259 20.6836 17.6236 20.3615 17.6236C20.8929 17.3828 21.6016 17.0296 22.3747 16.5961C23.2605 16.1144 24.1946 15.6006 24.6617 15.408C25.5958 15.0387 27.3835 14.9263 28.3015 15.6649C29.1712 16.3713 29.3484 17.5915 29.3645 18.2498C29.3806 18.6833 29.3967 19.2131 29.7349 19.7429C30.0409 20.1925 30.5241 20.1925 30.814 20.1925H30.8784H31.3938C31.3938 20.048 31.3938 19.9195 31.3938 19.775C30.8784 19.8072 30.1376 19.8393 29.8155 19.1489C29.4289 18.314 29.8477 16.1786 28.5592 15.2795C27.2708 14.3804 25.2092 14.6052 23.3732 15.6649C21.5533 16.7085 19.1374 18.0732 16.1579 19.2613C13.1783 20.4494 11.3262 20.931 10.9719 20.9792C10.6337 21.0434 11.2457 21.2682 12.518 21.3003C13.7904 21.3324 14.8533 21.2361 14.8533 21.2361L24.1946 16.9975C24.1946 16.9975 16.1418 20.9953 15.4653 21.4288C14.7889 21.8623 14.2413 22.0068 14.2896 22.4081C14.338 22.8095 14.8533 22.7614 16.2706 22.7292C17.6879 22.6971 17.9939 22.5687 18.4771 22.4242C18.9603 22.2797 24.1946 19.8714 24.1946 19.8714C24.1946 19.8714 18.5898 22.649 17.7846 23.2912C16.9793 23.9334 17.849 24.1421 18.3966 24.1582C18.9603 24.1742 20.4581 24.094 21.2956 23.6765C22.1331 23.2591 24.7422 21.5893 24.7422 21.5893C24.7422 21.5893 22.1653 23.4357 21.666 23.8531C21.2634 24.1903 21.054 24.4793 21.1506 24.8325C21.2956 25.2821 22.0687 25.2339 23.0994 24.8646C23.0994 24.8646 24.1624 24.4953 24.565 24.1421C24.9677 23.7729 26.0951 22.7774 26.0951 22.7774C26.0951 22.7774 24.7583 24.1582 24.4201 24.7522C24.098 25.3463 24.0335 25.4908 24.1946 25.8279C24.4201 26.3096 26.1273 25.8119 26.6104 25.2981C26.9648 24.8967 27.303 24.4793 27.609 24.0297C27.609 24.0297 27.0936 24.8646 26.9809 25.3463C26.8681 25.8279 26.7393 26.2133 27.2063 26.2614C27.7217 26.3417 28.2049 26.3578 28.7525 25.7637ZM31.9414 36.6975C31.9897 36.6654 32.038 36.6333 32.0864 36.6011C32.183 36.5369 32.2635 36.4888 32.3279 36.4245C32.4568 36.3443 32.5856 36.2479 32.7145 36.1676C32.7306 35.2525 32.7628 34.3213 32.7789 33.4061C32.5212 33.2937 32.2474 33.1813 31.9575 33.0689C31.9414 33.0689 31.9253 33.0529 31.9092 33.0529C31.877 33.0368 31.8609 33.0368 31.8287 33.0208C31.6354 32.9566 31.4582 32.8763 31.2489 32.8121C31.0073 32.7157 30.7657 32.6354 30.5241 32.5391C28.9135 33.3901 28.5914 33.7914 28.5914 34.5782C28.5914 35.686 29.5417 36.1837 31.1844 37.2273C31.4421 37.0346 31.6998 36.858 31.9414 36.6975ZM29.9604 34.7227C29.9604 34.7227 29.8477 34.0162 31.6676 33.1974C31.7159 33.1813 31.7642 33.1492 31.8126 33.1332C31.8287 34.241 31.8448 35.3488 31.877 36.4566C30.9751 35.8465 29.9604 35.2685 29.9604 34.7227ZM32.7145 48.3537C32.6339 48.4501 32.5534 48.5464 32.4729 48.6267C32.94 49.2528 32.9077 49.8629 32.65 50.6497C32.8916 50.3767 33.3748 49.6863 32.9722 48.7872C32.8916 48.6427 32.8111 48.4982 32.7145 48.3537ZM31.9736 41.771C32.1508 41.9476 32.3601 42.1563 32.5695 42.365C32.6984 42.4935 32.8272 42.6219 32.9722 42.7664C32.9883 42.7825 33.0205 42.7985 33.0527 42.8307C34.1479 41.8834 35.1464 40.9843 35.1464 39.8604C35.1464 38.9773 34.2928 38.1746 33.4392 37.5324C33.3587 37.5805 33.2782 37.6287 33.1976 37.6929C33.0044 37.8214 32.8272 37.9337 32.6662 38.0461C32.6662 38.0461 32.65 38.0461 32.65 38.0622C32.6178 38.0943 32.5695 38.1104 32.5373 38.1425C32.3118 38.303 32.1025 38.4475 31.9092 38.592C31.9414 39.6677 31.9575 40.7434 31.9736 41.771ZM32.6662 38.2227C33.7291 38.9934 34.1479 39.4911 34.1479 40.037C34.1479 40.5989 33.552 41.2572 32.5856 42.2205C32.6017 40.9361 32.6339 39.6035 32.6662 38.2227ZM38.5447 22.7935C38.5447 22.7935 39.6721 23.7889 40.0747 24.1582C40.4774 24.5275 41.5404 24.8807 41.5404 24.8807C42.5711 25.2499 43.3442 25.2981 43.4891 24.8486C43.6019 24.4953 43.3764 24.1903 42.9738 23.8692C42.4745 23.4517 39.8976 21.6054 39.8976 21.6054C39.8976 21.6054 42.5067 23.2751 43.3442 23.6926C44.1817 24.11 45.6795 24.1903 46.2432 24.1742C46.8069 24.1582 47.6605 23.9495 46.8552 23.3072C46.0499 22.665 40.4452 19.8874 40.4452 19.8874C40.4452 19.8874 45.6634 22.3118 46.1627 22.4402C46.6458 22.5847 46.9518 22.6971 48.3691 22.7453C49.7864 22.7774 50.2857 22.8256 50.3501 22.4242C50.4146 22.0389 49.8509 21.8944 49.1744 21.4448C48.498 21.0113 40.4452 17.0135 40.4452 17.0135L49.7864 21.2521C49.7864 21.2521 50.8494 21.3485 52.1218 21.3164C53.3941 21.2843 54.0061 21.0595 53.6679 20.9953C53.3297 20.931 51.4614 20.4654 48.4819 19.2773C45.5023 18.0892 43.0865 16.7406 41.2666 15.6809C39.4466 14.6373 37.369 14.3965 36.0805 15.2956C34.7921 16.1947 35.2108 18.314 34.8243 19.1649C34.5022 19.8553 33.7613 19.8232 33.246 19.7911C33.246 19.9195 33.246 20.064 33.2299 20.2085H33.7613H33.8258C34.1157 20.2085 34.5988 20.2085 34.9048 19.759C35.2431 19.2452 35.2592 18.6993 35.2753 18.2658C35.2914 17.6076 35.4685 16.3873 36.3382 15.6809C37.2563 14.9424 39.044 15.0547 39.9781 15.424C40.4452 15.6006 41.3793 16.1144 42.2651 16.6121C43.0382 17.0456 43.7468 17.3988 44.2783 17.6397C43.9401 17.6397 42.9254 17.142 42.1202 16.7406C41.2505 16.291 40.3485 15.8415 39.8815 15.6649C38.5125 15.119 37.0308 15.4561 36.4832 15.8896C35.6779 16.5318 35.533 17.6718 35.5169 18.2979C35.5007 18.7314 35.4846 19.3415 35.0981 19.9035C34.7599 20.4333 34.2284 20.4654 33.8902 20.4654C33.858 20.4654 33.8419 20.4654 33.8097 20.4654H33.2299C33.1976 21.6214 33.1654 23.1306 33.1332 24.8486C34.2284 26.2454 34.8565 26.422 35.3719 26.3096C35.8551 26.2133 35.3719 25.1215 35.2269 24.8325C35.4202 25.1697 35.6457 25.4747 35.9034 25.7637C36.4349 26.3578 36.9341 26.3417 37.4173 26.2775C37.9005 26.2133 37.7555 25.844 37.6428 25.3623C37.5301 24.8807 37.0147 24.0458 37.0147 24.0458C37.3207 24.4793 37.6589 24.9128 38.0132 25.3142C38.4964 25.8279 40.2036 26.3417 40.4291 25.844C40.574 25.5229 40.5257 25.3623 40.2036 24.7683C39.8976 24.1742 38.5447 22.7935 38.5447 22.7935ZM32.344 17.8805C32.6017 17.8805 32.8594 17.8002 33.0688 17.6557C33.2782 17.5112 33.4553 17.3025 33.552 17.0777C33.6486 16.8369 33.6808 16.58 33.6325 16.3231C33.5842 16.0662 33.4553 15.8415 33.2782 15.6488C33.101 15.4722 32.8594 15.3437 32.6017 15.2956C32.344 15.2474 32.0864 15.2635 31.8448 15.3759C31.6032 15.4722 31.3938 15.6488 31.265 15.8575C31.12 16.0662 31.0395 16.3231 31.0395 16.58C31.0395 16.7566 31.0717 16.9172 31.1361 17.0777C31.2005 17.2383 31.2972 17.3828 31.426 17.4952C31.5549 17.6236 31.6837 17.7199 31.8448 17.7842C31.9897 17.8484 32.1669 17.8805 32.344 17.8805ZM36.6281 27.6422C36.6281 27.6422 36.5959 26.7431 35.1303 26.6468C33.6325 26.5504 33.5681 27.1927 33.6003 27.4335C33.713 27.4335 33.8097 27.4656 33.8097 27.4977C33.8097 27.5298 33.7291 27.5619 33.6325 27.5619C33.713 27.8028 33.9385 28.0918 34.5827 28.4129C35.1142 28.6698 35.3719 28.6537 35.6779 28.6055C35.6779 28.6055 36.0322 28.8143 36.0322 29.1514C36.0322 29.4725 35.4685 30.0987 32.8272 31.4152C32.9883 24.3187 33.1332 18.0892 33.1332 18.0892H33.2943C33.3587 18.0892 33.4231 18.0571 33.4714 18.0089C33.5198 17.9608 33.552 17.8966 33.552 17.8323V17.7521C33.552 17.7199 33.552 17.6878 33.5359 17.6557C33.5198 17.6236 33.5036 17.5915 33.4714 17.5754C33.3265 17.736 33.1654 17.8644 32.9722 17.9608C32.7789 18.0571 32.5695 18.0892 32.3601 18.0892C32.1508 18.0892 31.9414 18.0411 31.7481 17.9608C31.5549 17.8805 31.3777 17.736 31.2489 17.5754C31.2166 17.6076 31.2005 17.6236 31.1844 17.6557C31.1683 17.6878 31.1683 17.7199 31.1683 17.7521V17.8323C31.1683 17.8966 31.2005 17.9608 31.2489 18.0089C31.2972 18.0571 31.3616 18.0892 31.426 18.0892H31.5871C31.5871 18.0892 31.6998 24.1421 31.8126 31.1102C32.038 31.2226 32.2635 31.335 32.5212 31.4634C32.5534 31.4795 32.6017 31.4955 32.6339 31.5116C33.2299 31.8006 33.7291 32.0414 34.1479 32.2662C35.5652 31.7203 36.9503 31.0941 37.369 30.2111C38.1099 28.5734 36.6281 27.6422 36.6281 27.6422ZM34.6633 27.2729C34.5022 27.2729 34.3734 27.1927 34.3734 27.0963C34.3734 27 34.5022 26.9197 34.6633 26.9197C34.8243 26.9197 34.9532 27 34.9532 27.0963C34.9532 27.1927 34.8243 27.2729 34.6633 27.2729ZM32.1025 47.5991C32.2313 47.4386 32.344 47.278 32.4729 47.1335C32.489 46.2183 32.5212 45.1908 32.5373 44.083C32.3763 43.9224 32.1991 43.7619 32.0058 43.5853C31.9414 43.5371 31.8931 43.4729 31.8287 43.4247C31.7481 43.3444 31.6676 43.2802 31.5871 43.216C31.1361 43.6334 30.2503 44.5646 30.2503 45.3674C30.2503 46.3147 31.1683 47.278 31.8609 47.9684C31.9253 47.8239 32.0058 47.7115 32.1025 47.5991ZM32.0058 43.7779C32.038 45.1426 32.0541 46.395 32.0702 47.4707C31.5388 46.7642 30.9751 46.0417 30.9751 45.544C30.9751 45.0784 31.2489 44.5486 32.0058 43.7779ZM32.3763 31.6721C29.2357 30.1629 28.5914 29.4725 28.5914 29.1354C28.5914 28.7982 28.9458 28.5895 28.9458 28.5895C29.2518 28.6537 29.5095 28.6537 30.0409 28.3968C30.6852 28.0918 30.9106 27.7867 30.9912 27.5459C30.8945 27.5459 30.814 27.5138 30.814 27.4817C30.814 27.4495 30.9106 27.4174 31.0234 27.4174V27.4014C31.0395 27.1605 30.959 26.5344 29.4772 26.6307C28.0116 26.7271 27.9794 27.6262 27.9794 27.6262C27.9794 27.6262 26.4977 28.5734 27.2708 30.179C27.9472 31.6079 31.12 32.3625 32.9561 33.1813C34.776 34.0002 34.6633 34.7066 34.6633 34.7066C34.6633 35.3167 33.4392 35.9589 32.4729 36.6333C31.5066 37.3076 29.4611 38.4796 29.4611 39.8604C29.4611 41.1288 30.7335 42.1082 31.9736 43.1999C33.2299 44.2917 33.6325 44.95 33.6325 45.5601C33.6325 46.395 32.2474 47.5188 31.5388 48.9157C30.8301 50.3125 32.2313 52.48 31.7965 51.34C31.3455 50.2001 31.5871 49.3973 32.1669 48.5946C32.8755 47.6152 34.3895 46.6518 34.3895 45.3514C34.3895 44.2596 32.795 42.9752 32.795 42.9752C31.3777 41.5623 30.4758 40.7595 30.4758 40.0531C30.4758 39.3466 31.1522 38.7205 33.0527 37.4842C34.937 36.264 36.0483 35.7823 36.0483 34.5942C36.0483 33.5506 35.5169 33.1813 32.3763 31.6721ZM29.9604 26.9358C30.1215 26.9358 30.2503 27.016 30.2503 27.1124C30.2503 27.2087 30.1215 27.289 29.9604 27.289C29.7994 27.289 29.6705 27.2087 29.6705 27.1124C29.6705 27.016 29.7994 26.9358 29.9604 26.9358Z" fill="#086CD9"/>
<rect x="4.47998" y="26.24" width="55.04" height="11.52" fill="#ECFBFF"/>
<path d="M20.2061 35.24V29.1472H21.4157V35.24H20.2061ZM24.1127 35.24V29.1472H25.3133V35.24H24.1127ZM21.0842 32.6058V31.6202H24.3457V32.6058H21.0842ZM26.5236 35.24V29.1472H27.7332V35.24H26.5236ZM28.9299 35.24V29.1472H30.1395V35.24H28.9299ZM31.2147 33.1613H29.808V32.2026H31.152C31.5402 32.2026 31.8329 32.107 32.03 31.9158C32.2272 31.7247 32.3257 31.4708 32.3257 31.1542C32.3257 30.8317 32.2242 30.5778 32.0211 30.3926C31.824 30.2015 31.5432 30.1059 31.1788 30.1059H29.808V29.1472H31.1968C31.6866 29.1472 32.1077 29.2278 32.4601 29.3891C32.8126 29.5504 33.0843 29.7804 33.2755 30.079C33.4666 30.3717 33.5622 30.7271 33.5622 31.1453C33.5622 31.7844 33.3502 32.2802 32.926 32.6326C32.5019 32.9851 31.9315 33.1613 31.2147 33.1613ZM34.9115 33.9766V33.0448H37.8952V33.9766H34.9115ZM38.1819 35.24L36.596 30.9571L36.372 30.1776H36.4616L36.2376 30.9571L34.6517 35.24H33.4421L35.7359 29.1472H37.1605L39.4543 35.24H38.1819ZM41.1415 33.9766V33.0448H44.1252V33.9766H41.1415ZM44.4119 35.24L42.826 30.9571L42.602 30.1776H42.6916L42.4676 30.9571L40.8817 35.24H39.6721L41.9658 29.1472H43.3905L45.6842 35.24H44.4119Z" fill="#00060C"/>
<defs>
<linearGradient id="paint0_linear_606_5934" x1="45.9697" y1="5.82156" x2="10.2402" y2="55.0399" gradientUnits="userSpaceOnUse">
<stop stop-color="white"/>
<stop offset="1" stop-color="white"/>
</linearGradient>
<linearGradient id="paint1_linear_606_5934" x1="45.9697" y1="5.82156" x2="10.2402" y2="55.0399" gradientUnits="userSpaceOnUse">
<stop stop-color="white"/>
<stop offset="1" stop-color="white"/>
</linearGradient>
<linearGradient id="paint2_linear_606_5934" x1="45.9697" y1="5.82156" x2="10.2402" y2="55.0399" gradientUnits="userSpaceOnUse">
<stop stop-color="white"/>
<stop offset="1" stop-color="white"/>
</linearGradient>
</defs>
</svg>
