<svg width="64" height="64" viewBox="0 0 64 64" fill="none" xmlns="http://www.w3.org/2000/svg">
<path d="M26.88 2.95603C30.0483 1.12683 33.9517 1.12683 37.12 2.95603L54.5928 13.044C57.7611 14.8732 59.7128 18.2537 59.7128 21.9121V42.0879C59.7128 45.7463 57.7611 49.1268 54.5928 50.956L37.12 61.044C33.9517 62.8732 30.0483 62.8732 26.88 61.044L9.40719 50.956C6.23892 49.1268 4.28719 45.7463 4.28719 42.0879V21.9121C4.28719 18.2537 6.23892 14.8732 9.40719 13.044L26.88 2.95603Z" fill="#E5F1FE"/>
<path d="M29.4402 4.67797C31.0243 3.76337 32.9761 3.76337 34.5602 4.67797L54.3817 16.1219C55.9659 17.0365 56.9417 18.7268 56.9417 20.556V43.4439C56.9417 45.2731 55.9659 46.9634 54.3817 47.878L34.5602 59.3219C32.9761 60.2365 31.0243 60.2365 29.4402 59.3219L9.61867 47.878C8.03453 46.9634 7.05866 45.2731 7.05866 43.4439V20.556C7.05866 18.7268 8.03453 17.0365 9.61866 16.1219L29.4402 4.67797Z" fill="#007CF5"/>
<path d="M18.8067 52.5767C15.4624 52.5767 13.5513 49.3191 15.2633 46.4105C17.6919 42.3773 20.2798 38.3829 22.788 34.3885L35.8071 13.6796C36.8422 12.0508 38.0765 10.771 40.1866 10.8874C43.4513 11.0813 45.1235 14.3776 43.292 17.325C39.4699 23.5687 35.5284 29.7348 31.6267 35.901C28.6805 40.6322 25.6944 45.3247 22.7482 50.0559C21.8325 51.5296 20.6779 52.5379 18.8067 52.5767Z" fill="url(#paint0_linear_606_77)" fill-opacity="0.05"/>
<path d="M53.6834 30.1226C51.5334 33.7292 49.2243 37.2583 46.9947 40.8261C44.5263 44.7042 42.0976 48.621 39.6292 52.4603C37.9968 55.0199 35.6876 55.7179 33.4979 54.3606C31.3878 53.0808 30.9896 50.7152 32.5026 48.272C37.1209 40.9424 41.7393 33.6129 46.3577 26.2445C47.2734 24.7709 48.4678 23.7626 50.339 23.8013C53.6436 23.8013 55.475 27.1365 53.7232 30.0838L53.6834 30.1226Z" fill="url(#paint1_linear_606_77)" fill-opacity="0.05"/>
<path d="M10.7245 26.0119C12.1578 23.4135 13.7902 20.9316 15.5022 18.4884C16.7364 16.7045 19.1252 16.3167 20.9566 17.4025C22.8677 18.4884 23.5843 20.8152 22.4695 22.7543C20.9964 25.275 19.4039 27.6794 17.8114 30.1226C17.0549 31.286 15.8605 31.829 14.467 31.829C11.3217 31.829 9.25144 28.7265 10.7245 26.0119Z" fill="url(#paint2_linear_606_77)" fill-opacity="0.05"/>
<path d="M22.788 34.3885C20.2798 38.3829 17.6919 42.3773 15.2633 46.4105C13.5513 49.3191 15.4624 52.5767 18.8067 52.5767C20.6779 52.5379 21.8325 51.5296 22.7482 50.0559C25.6944 45.3247 28.6805 40.6322 31.6267 35.901C35.5284 29.7348 39.4699 23.5687 43.292 17.325C45.1235 14.3776 43.4513 11.0813 40.1866 10.8874C38.0765 10.771 36.8422 12.0508 35.8071 13.6796M22.788 34.3885C27.1277 27.4855 31.4674 20.5825 35.8071 13.6796M22.788 34.3885L35.8071 13.6796M10.7245 26.0119C12.1578 23.4135 13.7902 20.9316 15.5022 18.4884C16.7364 16.7045 19.1252 16.3167 20.9566 17.4025C22.8677 18.4884 23.5843 20.8152 22.4695 22.7543C20.9964 25.275 19.4039 27.6794 17.8114 30.1226C17.0549 31.286 15.8605 31.829 14.467 31.829C11.3217 31.829 9.25144 28.7265 10.7245 26.0119ZM53.6834 30.1226C51.5334 33.7292 49.2243 37.2583 46.9947 40.8261C44.5263 44.7042 42.0976 48.621 39.6292 52.4603C37.9968 55.0199 35.6876 55.7179 33.4979 54.3606C31.3878 53.0808 30.9896 50.7152 32.5026 48.272C37.1209 40.9424 41.7393 33.6129 46.3577 26.2445C47.2734 24.7709 48.4678 23.7626 50.339 23.8013C53.6436 23.8013 55.475 27.1365 53.7232 30.0838L53.6834 30.1226Z" stroke="white" stroke-opacity="0.05" stroke-width="0.64"/>
<path d="M45.8884 17.28H18.7524C17.8527 17.28 16.99 17.6431 16.3538 18.2894C15.7177 18.9357 15.3604 19.8122 15.3604 20.7262V30.3754C15.3604 39.73 19.8242 45.4041 23.569 48.5177C27.5902 51.8587 31.6148 52.9977 31.7844 53.0477C32.1354 53.1441 32.5053 53.1441 32.8563 53.0477C33.0259 52.9994 37.0505 51.8587 41.0717 48.5177C44.8165 45.4041 49.2803 39.73 49.2803 30.3754V20.7262C49.2803 19.8122 48.923 18.9357 48.2869 18.2894C47.6507 17.6431 46.788 17.28 45.8884 17.28ZM19.4308 21.4154H45.21V30.3754C45.2364 32.8197 44.8344 35.2492 44.0228 37.5503L33.4889 30.0601C33.1469 29.8169 32.7395 29.6865 32.322 29.6865C31.9046 29.6865 31.4972 29.8169 31.1552 30.0601L20.618 37.5503C19.8063 35.2492 19.4043 32.8197 19.4308 30.3754V21.4154ZM38.6108 45.2197C36.7338 46.7933 34.6065 48.0304 32.3204 48.8778C30.034 48.0308 27.9067 46.7937 26.0299 45.2197C24.6685 44.0818 23.4743 42.7519 22.4836 41.2704L32.3204 34.2782L42.1572 41.2704C41.1664 42.7519 39.9722 44.0818 38.6108 45.2197Z" fill="#0063C4" fill-opacity="0.5"/>
<rect x="4.48047" y="26.24" width="55.04" height="11.52" fill="#E5F1FE"/>
<path d="M24.5271 43.76V39.408H25.1159V43.76H24.5271ZM23.0359 39.9072V39.408H26.6071V39.9072H23.0359ZM28.4639 43.76V42.1536H29.0527V43.76H28.4639ZM27.5615 39.408L28.5791 41.2192L28.8095 41.6992H28.7519L28.9695 41.2192L29.9871 39.408H30.6143L29.0527 42.1536H28.4639L26.9023 39.408H27.5615ZM31.2117 43.76V39.408H31.8005V43.76H31.2117ZM32.7093 42.1728H31.6341V41.6928H32.6773C33.0016 41.6928 33.2533 41.6117 33.4325 41.4496C33.6117 41.2875 33.7013 41.0677 33.7013 40.7904C33.7013 40.5131 33.6117 40.2933 33.4325 40.1312C33.2533 39.9691 33.008 39.888 32.6965 39.888H31.6341V39.408H32.7029C33.0315 39.408 33.3152 39.4635 33.5541 39.5744C33.7973 39.6853 33.9829 39.8432 34.1109 40.048C34.2432 40.2528 34.3093 40.4981 34.3093 40.784C34.3093 41.2235 34.1643 41.5648 33.8741 41.808C33.584 42.0512 33.1957 42.1728 32.7093 42.1728ZM35.0617 43.76V39.408H35.6505V43.76H35.0617ZM35.4841 43.76V43.28H38.0121V43.76H35.4841ZM35.4841 39.888V39.408H38.0121V39.888H35.4841ZM35.4841 41.744V41.264H37.7753V41.744H35.4841ZM40.0742 43.76V39.408H40.663V43.76H40.0742Z" fill="#F5F5F5"/>
<path d="M21.4255 30.4394C21.4255 30.6245 21.4763 30.7739 21.5778 30.8874C21.6854 30.9949 21.8257 31.0815 21.999 31.1472C22.1722 31.2069 22.3663 31.2607 22.5814 31.3085C22.7964 31.3503 23.0174 31.3951 23.2444 31.4429C23.4774 31.4847 23.7014 31.5444 23.9164 31.6221C24.1314 31.6997 24.3256 31.8043 24.4988 31.9357C24.678 32.0611 24.8184 32.2284 24.9199 32.4374C25.0215 32.6405 25.0722 32.8974 25.0722 33.208C25.0722 33.6142 24.9677 33.9636 24.7586 34.2563C24.5555 34.543 24.2748 34.7611 23.9164 34.9104C23.558 35.0597 23.1488 35.1344 22.6889 35.1344C22.223 35.1344 21.8078 35.0627 21.4434 34.9194C21.085 34.776 20.7864 34.558 20.5474 34.2653C20.3145 33.9726 20.1592 33.6052 20.0815 33.1632H21.3449C21.4225 33.4858 21.5748 33.7337 21.8018 33.9069C22.0348 34.0801 22.3335 34.1667 22.6978 34.1667C23.0742 34.1667 23.3579 34.095 23.549 33.9517C23.7402 33.8023 23.8358 33.6052 23.8358 33.3603C23.8358 33.1632 23.785 33.0049 23.6834 32.8854C23.5819 32.766 23.4445 32.6734 23.2713 32.6077C23.098 32.536 22.9039 32.4763 22.6889 32.4285C22.4738 32.3807 22.2498 32.3329 22.0169 32.2851C21.7899 32.2314 21.5659 32.1686 21.3449 32.097C21.1298 32.0193 20.9357 31.9178 20.7625 31.7923C20.5892 31.6669 20.4519 31.5056 20.3503 31.3085C20.2488 31.1054 20.198 30.8515 20.198 30.5469C20.198 30.2243 20.2846 29.9286 20.4578 29.6598C20.6311 29.391 20.8849 29.176 21.2194 29.0147C21.5539 28.8534 21.9601 28.7728 22.438 28.7728C22.8502 28.7728 23.2295 28.8415 23.5759 28.9789C23.9283 29.1163 24.221 29.3283 24.454 29.615C24.6929 29.9018 24.8423 30.2751 24.902 30.735H23.6207C23.549 30.3886 23.4087 30.1377 23.1996 29.9824C22.9965 29.8211 22.7307 29.7405 22.4022 29.7405C22.0975 29.7405 21.8586 29.8062 21.6854 29.9376C21.5121 30.063 21.4255 30.2303 21.4255 30.4394ZM28.7292 35.1344C28.1199 35.1344 27.5913 35.006 27.1433 34.7491C26.6953 34.4923 26.3488 34.1279 26.1039 33.656C25.865 33.1781 25.7455 32.6137 25.7455 31.9626C25.7455 31.3055 25.865 30.741 26.1039 30.2691C26.3488 29.7913 26.6953 29.4239 27.1433 29.167C27.5913 28.9042 28.1199 28.7728 28.7292 28.7728C29.3444 28.7728 29.8761 28.9042 30.3241 29.167C30.7721 29.4239 31.1155 29.7913 31.3545 30.2691C31.5994 30.741 31.7218 31.3055 31.7218 31.9626C31.7218 32.6137 31.5994 33.1781 31.3545 33.656C31.1155 34.1279 30.7721 34.4923 30.3241 34.7491C29.8761 35.006 29.3444 35.1344 28.7292 35.1344ZM28.7292 34.1309C29.0995 34.1309 29.4131 34.0443 29.67 33.871C29.9328 33.6978 30.1329 33.4499 30.2703 33.1274C30.4137 32.7988 30.4853 32.4106 30.4853 31.9626C30.4853 31.5086 30.4137 31.1203 30.2703 30.7978C30.1329 30.4692 29.9328 30.2183 29.67 30.0451C29.4131 29.8659 29.0995 29.7763 28.7292 29.7763C28.3648 29.7763 28.0512 29.8659 27.7884 30.0451C27.5255 30.2183 27.3254 30.4692 27.1881 30.7978C27.0507 31.1203 26.982 31.5086 26.982 31.9626C26.982 32.4106 27.0507 32.7988 27.1881 33.1274C27.3254 33.4499 27.5255 33.6978 27.7884 33.871C28.0512 34.0443 28.3648 34.1309 28.7292 34.1309ZM38.0017 30.7888H36.7384C36.6428 30.4603 36.4725 30.2094 36.2276 30.0362C35.9887 29.8629 35.699 29.7763 35.3585 29.7763C35.024 29.7763 34.7343 29.8659 34.4894 30.0451C34.2505 30.2183 34.0653 30.4692 33.9339 30.7978C33.8084 31.1203 33.7457 31.5086 33.7457 31.9626C33.7457 32.4165 33.8084 32.8048 33.9339 33.1274C34.0593 33.4499 34.2415 33.6978 34.4804 33.871C34.7253 34.0443 35.018 34.1309 35.3585 34.1309C35.6811 34.1309 35.9618 34.0502 36.2008 33.889C36.4457 33.7217 36.6189 33.4798 36.7204 33.1632H37.9928C37.8852 33.5873 37.7031 33.9457 37.4462 34.2384C37.1953 34.5311 36.8907 34.7551 36.5323 34.9104C36.1799 35.0597 35.7946 35.1344 35.3764 35.1344C34.7851 35.1344 34.2744 35.006 33.8443 34.7491C33.4142 34.4923 33.0827 34.1279 32.8497 33.656C32.6227 33.1841 32.5092 32.6196 32.5092 31.9626C32.5092 31.3055 32.6257 30.741 32.8587 30.2691C33.0916 29.7913 33.4232 29.4239 33.8532 29.167C34.2833 28.9042 34.797 28.7728 35.3944 28.7728C35.8185 28.7728 36.2097 28.8505 36.5681 29.0058C36.9265 29.1551 37.2312 29.3791 37.482 29.6778C37.7389 29.9764 37.9121 30.3468 38.0017 30.7888ZM44.7019 30.9053C44.7019 31.1741 44.6452 31.41 44.5317 31.6131C44.4241 31.8162 44.2778 31.9984 44.0926 32.1597C43.9075 32.315 43.7044 32.4583 43.4833 32.5898C43.2683 32.7212 43.0503 32.8526 42.8293 32.984C42.6142 33.1154 42.4141 33.2558 42.2289 33.4051C42.0438 33.5485 41.8944 33.7157 41.7809 33.9069C41.6734 34.098 41.6197 34.319 41.6197 34.5699L40.4907 34.7133C40.4907 34.3429 40.5445 34.0263 40.652 33.7635C40.7655 33.4947 40.9118 33.2647 41.091 33.0736C41.2762 32.8765 41.4763 32.7062 41.6913 32.5629C41.9064 32.4195 42.1214 32.2911 42.3365 32.1776C42.5575 32.0581 42.7576 31.9387 42.9368 31.8192C43.122 31.6997 43.2683 31.5683 43.3758 31.425C43.4893 31.2816 43.5461 31.1114 43.5461 30.9142C43.5461 30.6454 43.4684 30.4364 43.3131 30.287C43.1638 30.1317 42.9457 30.0541 42.659 30.0541C42.3484 30.0541 42.1095 30.1347 41.9422 30.296C41.7809 30.4513 41.6794 30.6663 41.6376 30.9411H40.4638C40.5176 30.5588 40.64 30.2333 40.8312 29.9645C41.0223 29.6897 41.2732 29.4777 41.5838 29.3283C41.8944 29.179 42.2558 29.1043 42.668 29.1043C43.116 29.1043 43.4893 29.185 43.788 29.3462C44.0926 29.5075 44.3196 29.7255 44.4689 30.0003C44.6243 30.2691 44.7019 30.5708 44.7019 30.9053ZM40.4907 35V34.7133L41.3957 34.1219H44.7198V35H40.4907Z" fill="#00060C"/>
<defs>
<linearGradient id="paint0_linear_606_77" x1="45.9697" y1="5.82168" x2="10.2402" y2="55.04" gradientUnits="userSpaceOnUse">
<stop stop-color="white"/>
<stop offset="1" stop-color="white"/>
</linearGradient>
<linearGradient id="paint1_linear_606_77" x1="45.9697" y1="5.82168" x2="10.2402" y2="55.04" gradientUnits="userSpaceOnUse">
<stop stop-color="white"/>
<stop offset="1" stop-color="white"/>
</linearGradient>
<linearGradient id="paint2_linear_606_77" x1="45.9697" y1="5.82168" x2="10.2402" y2="55.04" gradientUnits="userSpaceOnUse">
<stop stop-color="white"/>
<stop offset="1" stop-color="white"/>
</linearGradient>
</defs>
</svg>
