<svg width="64" height="64" viewBox="0 0 64 64" fill="none" xmlns="http://www.w3.org/2000/svg">
<path d="M26.88 2.95603C30.0483 1.12683 33.9517 1.12683 37.12 2.95603L54.5928 13.044C57.7611 14.8732 59.7128 18.2537 59.7128 21.9121V42.0879C59.7128 45.7463 57.7611 49.1268 54.5928 50.956L37.12 61.044C33.9517 62.8732 30.0483 62.8732 26.88 61.044L9.40719 50.956C6.23892 49.1268 4.28719 45.7463 4.28719 42.0879V21.9121C4.28719 18.2537 6.23892 14.8732 9.40719 13.044L26.88 2.95603Z" fill="#ECFBFF"/>
<path d="M29.4402 4.67797C31.0243 3.76337 32.9761 3.76337 34.5602 4.67797L54.3817 16.1219C55.9659 17.0365 56.9417 18.7268 56.9417 20.556V43.4439C56.9417 45.2731 55.9659 46.9634 54.3817 47.878L34.5602 59.3219C32.9761 60.2365 31.0243 60.2365 29.4402 59.3219L9.61867 47.878C8.03453 46.9634 7.05866 45.2731 7.05866 43.4439V20.556C7.05866 18.7268 8.03453 17.0365 9.61866 16.1219L29.4402 4.67797Z" fill="#007CF5"/>
<path d="M18.8062 52.5766C15.4619 52.5766 13.5508 49.319 15.2628 46.4104C17.6914 42.3772 20.2793 38.3828 22.7876 34.3884L35.8066 13.6794C36.8417 12.0507 38.076 10.7709 40.1861 10.8872C43.4508 11.0811 45.123 14.3775 43.2915 17.3248C39.4694 23.5685 35.5279 29.7347 31.6262 35.9008C28.68 40.6321 25.694 45.3246 22.7477 50.0558C21.832 51.5295 20.6774 52.5378 18.8062 52.5766Z" fill="url(#paint0_linear_606_5908)" fill-opacity="0.05"/>
<path d="M53.6829 30.1225C51.5329 33.7291 49.2238 37.2582 46.9942 40.826C44.5258 44.7041 42.0971 48.6209 39.6287 52.4602C37.9963 55.0197 35.6872 55.7178 33.4974 54.3605C31.3873 53.0807 30.9892 50.7151 32.5021 48.2719C37.1204 40.9423 41.7388 33.6128 46.3572 26.2444C47.2729 24.7707 48.4673 23.7624 50.3385 23.8012C53.6431 23.8012 55.4745 27.1364 53.7227 30.0837L53.6829 30.1225Z" fill="url(#paint1_linear_606_5908)" fill-opacity="0.05"/>
<path d="M10.7241 26.0117C12.1573 23.4134 13.7897 20.9315 15.5017 18.4883C16.7359 16.7043 19.1247 16.3165 20.9561 17.4024C22.8672 18.4883 23.5838 20.8151 22.4691 22.7541C20.996 25.2749 19.4034 27.6793 17.8109 30.1225C17.0544 31.2859 15.86 31.8288 14.4665 31.8288C11.3213 31.8288 9.25095 28.7264 10.7241 26.0117Z" fill="url(#paint2_linear_606_5908)" fill-opacity="0.05"/>
<path d="M22.7876 34.3884C20.2793 38.3828 17.6914 42.3772 15.2628 46.4104C13.5508 49.319 15.4619 52.5766 18.8062 52.5766C20.6774 52.5378 21.832 51.5295 22.7477 50.0558C25.694 45.3246 28.68 40.6321 31.6262 35.9008C35.5279 29.7347 39.4694 23.5685 43.2915 17.3248C45.123 14.3775 43.4508 11.0811 40.1861 10.8872C38.076 10.7709 36.8417 12.0507 35.8066 13.6794M22.7876 34.3884C27.1272 27.4854 31.4669 20.5824 35.8066 13.6794M22.7876 34.3884L35.8066 13.6794M10.7241 26.0117C12.1573 23.4134 13.7897 20.9315 15.5017 18.4883C16.7359 16.7043 19.1247 16.3165 20.9561 17.4024C22.8672 18.4883 23.5838 20.8151 22.4691 22.7541C20.996 25.2749 19.4034 27.6793 17.8109 30.1225C17.0544 31.2859 15.86 31.8289 14.4665 31.8289C11.3213 31.8289 9.25095 28.7264 10.7241 26.0117ZM53.6829 30.1225C51.5329 33.7291 49.2238 37.2582 46.9942 40.826C44.5258 44.7041 42.0971 48.6209 39.6287 52.4602C37.9963 55.0197 35.6872 55.7178 33.4974 54.3605C31.3873 53.0807 30.9892 50.7151 32.5021 48.2719C37.1204 40.9423 41.7388 33.6128 46.3572 26.2444C47.2729 24.7707 48.4673 23.7624 50.3385 23.8012C53.6431 23.8012 55.4745 27.1364 53.7227 30.0837L53.6829 30.1225Z" stroke="white" stroke-opacity="0.05" stroke-width="0.64"/>
<path d="M45.8879 17.28H18.7519C17.8522 17.28 16.9895 17.6431 16.3534 18.2894C15.7172 18.9357 15.3599 19.8122 15.3599 20.7262V30.3754C15.3599 39.73 19.8237 45.4041 23.5685 48.5177C27.5897 51.8587 31.6143 52.9977 31.7839 53.0477C32.1349 53.1441 32.5048 53.1441 32.8558 53.0477C33.0254 52.9994 37.05 51.8587 41.0712 48.5177C44.816 45.4041 49.2799 39.73 49.2799 30.3754V20.7262C49.2799 19.8122 48.9225 18.9357 48.2864 18.2894C47.6502 17.6431 46.7875 17.28 45.8879 17.28ZM19.4303 21.4154H45.2095V30.3754C45.2359 32.8197 44.8339 35.2492 44.0223 37.5503L33.4884 30.0601C33.1464 29.8169 32.739 29.6865 32.3216 29.6865C31.9041 29.6865 31.4967 29.8169 31.1547 30.0601L20.6175 37.5503C19.8058 35.2492 19.4038 32.8197 19.4303 30.3754V21.4154ZM38.6103 45.2197C36.7333 46.7933 34.606 48.0304 32.3199 48.8778C30.0335 48.0308 27.9062 46.7937 26.0294 45.2197C24.668 44.0818 23.4738 42.7519 22.4831 41.2704L32.3199 34.2782L42.1567 41.2704C41.1659 42.7519 39.9717 44.0818 38.6103 45.2197Z" fill="#086CD9"/>
<rect x="4.47998" y="26.24" width="55.04" height="11.52" fill="#ECFBFF"/>
<path d="M21.1257 30.6794C21.1257 30.8645 21.1765 31.0139 21.278 31.1274C21.3855 31.2349 21.5259 31.3215 21.6991 31.3872C21.8724 31.4469 22.0665 31.5007 22.2815 31.5485C22.4966 31.5903 22.7176 31.6351 22.9446 31.6829C23.1775 31.7247 23.4015 31.7844 23.6166 31.8621C23.8316 31.9397 24.0258 32.0443 24.199 32.1757C24.3782 32.3011 24.5186 32.4684 24.6201 32.6774C24.7217 32.8805 24.7724 33.1374 24.7724 33.448C24.7724 33.8542 24.6679 34.2036 24.4588 34.4963C24.2557 34.783 23.975 35.0011 23.6166 35.1504C23.2582 35.2997 22.849 35.3744 22.3891 35.3744C21.9231 35.3744 21.508 35.3027 21.1436 35.1594C20.7852 35.016 20.4866 34.798 20.2476 34.5053C20.0147 34.2126 19.8594 33.8452 19.7817 33.4032H21.0451C21.1227 33.7258 21.275 33.9736 21.502 34.1469C21.735 34.3201 22.0337 34.4067 22.398 34.4067C22.7743 34.4067 23.0581 34.335 23.2492 34.1917C23.4404 34.0423 23.5359 33.8452 23.5359 33.6003C23.5359 33.4032 23.4852 33.2449 23.3836 33.1254C23.2821 33.006 23.1447 32.9134 22.9715 32.8477C22.7982 32.776 22.6041 32.7163 22.3891 32.6685C22.174 32.6207 21.95 32.5729 21.7171 32.5251C21.4901 32.4714 21.2661 32.4086 21.0451 32.337C20.83 32.2593 20.6359 32.1578 20.4627 32.0323C20.2894 31.9069 20.1521 31.7456 20.0505 31.5485C19.949 31.3454 19.8982 31.0915 19.8982 30.7869C19.8982 30.4643 19.9848 30.1686 20.158 29.8998C20.3313 29.631 20.5851 29.416 20.9196 29.2547C21.2541 29.0934 21.6603 29.0128 22.1382 29.0128C22.5503 29.0128 22.9297 29.0815 23.2761 29.2189C23.6285 29.3563 23.9212 29.5683 24.1542 29.855C24.3931 30.1417 24.5425 30.5151 24.6022 30.975H23.3209C23.2492 30.6286 23.1089 30.3777 22.8998 30.2224C22.6967 30.0611 22.4309 29.9805 22.1023 29.9805C21.7977 29.9805 21.5588 30.0462 21.3855 30.1776C21.2123 30.303 21.1257 30.4703 21.1257 30.6794ZM28.4294 35.3744C27.8201 35.3744 27.2914 35.246 26.8434 34.9891C26.3954 34.7323 26.049 34.3679 25.8041 33.896C25.5652 33.4181 25.4457 32.8536 25.4457 32.2026C25.4457 31.5455 25.5652 30.981 25.8041 30.5091C26.049 30.0312 26.3954 29.6639 26.8434 29.407C27.2914 29.1442 27.8201 29.0128 28.4294 29.0128C29.0446 29.0128 29.5762 29.1442 30.0242 29.407C30.4722 29.6639 30.8157 30.0312 31.0546 30.5091C31.2996 30.981 31.422 31.5455 31.422 32.2026C31.422 32.8536 31.2996 33.4181 31.0546 33.896C30.8157 34.3679 30.4722 34.7323 30.0242 34.9891C29.5762 35.246 29.0446 35.3744 28.4294 35.3744ZM28.4294 34.3709C28.7997 34.3709 29.1133 34.2843 29.3702 34.111C29.633 33.9378 29.8331 33.6899 29.9705 33.3674C30.1138 33.0388 30.1855 32.6506 30.1855 32.2026C30.1855 31.7486 30.1138 31.3603 29.9705 31.0378C29.8331 30.7092 29.633 30.4583 29.3702 30.2851C29.1133 30.1059 28.7997 30.0163 28.4294 30.0163C28.065 30.0163 27.7514 30.1059 27.4886 30.2851C27.2257 30.4583 27.0256 30.7092 26.8882 31.0378C26.7509 31.3603 26.6822 31.7486 26.6822 32.2026C26.6822 32.6506 26.7509 33.0388 26.8882 33.3674C27.0256 33.6899 27.2257 33.9378 27.4886 34.111C27.7514 34.2843 28.065 34.3709 28.4294 34.3709ZM37.7019 31.0288H36.4386C36.343 30.7003 36.1727 30.4494 35.9278 30.2762C35.6889 30.1029 35.3992 30.0163 35.0587 30.0163C34.7242 30.0163 34.4345 30.1059 34.1896 30.2851C33.9507 30.4583 33.7655 30.7092 33.6341 31.0378C33.5086 31.3603 33.4459 31.7486 33.4459 32.2026C33.4459 32.6565 33.5086 33.0448 33.6341 33.3674C33.7595 33.6899 33.9417 33.9378 34.1806 34.111C34.4255 34.2843 34.7182 34.3709 35.0587 34.3709C35.3813 34.3709 35.662 34.2902 35.901 34.129C36.1459 33.9617 36.3191 33.7198 36.4206 33.4032H37.693C37.5854 33.8273 37.4032 34.1857 37.1464 34.4784C36.8955 34.7711 36.5909 34.9951 36.2325 35.1504C35.88 35.2997 35.4948 35.3744 35.0766 35.3744C34.4853 35.3744 33.9746 35.246 33.5445 34.9891C33.1144 34.7323 32.7829 34.3679 32.5499 33.896C32.3229 33.4241 32.2094 32.8596 32.2094 32.2026C32.2094 31.5455 32.3259 30.981 32.5589 30.5091C32.7918 30.0312 33.1234 29.6639 33.5534 29.407C33.9835 29.1442 34.4972 29.0128 35.0946 29.0128C35.5187 29.0128 35.9099 29.0904 36.2683 29.2457C36.6267 29.3951 36.9314 29.6191 37.1822 29.9177C37.4391 30.2164 37.6123 30.5868 37.7019 31.0288ZM44.4021 31.1453C44.4021 31.4141 44.3454 31.65 44.2319 31.8531C44.1243 32.0562 43.978 32.2384 43.7928 32.3997C43.6077 32.555 43.4046 32.6983 43.1835 32.8298C42.9685 32.9612 42.7505 33.0926 42.5295 33.224C42.3144 33.3554 42.1143 33.4958 41.9291 33.6451C41.744 33.7885 41.5946 33.9557 41.4811 34.1469C41.3736 34.338 41.3199 34.559 41.3199 34.8099L40.1909 34.9533C40.1909 34.5829 40.2447 34.2663 40.3522 34.0035C40.4657 33.7347 40.612 33.5047 40.7912 33.3136C40.9764 33.1165 41.1765 32.9462 41.3915 32.8029C41.6066 32.6595 41.8216 32.5311 42.0367 32.4176C42.2577 32.2981 42.4578 32.1787 42.637 32.0592C42.8222 31.9397 42.9685 31.8083 43.076 31.665C43.1895 31.5216 43.2463 31.3514 43.2463 31.1542C43.2463 30.8854 43.1686 30.6764 43.0133 30.527C42.864 30.3717 42.6459 30.2941 42.3592 30.2941C42.0486 30.2941 41.8097 30.3747 41.6424 30.536C41.4811 30.6913 41.3796 30.9063 41.3378 31.1811H40.164C40.2178 30.7988 40.3402 30.4733 40.5314 30.2045C40.7225 29.9297 40.9734 29.7176 41.284 29.5683C41.5946 29.419 41.956 29.3443 42.3682 29.3443C42.8162 29.3443 43.1895 29.4249 43.4882 29.5862C43.7928 29.7475 44.0198 29.9655 44.1691 30.2403C44.3245 30.5091 44.4021 30.8108 44.4021 31.1453ZM40.1909 35.24V34.9533L41.0959 34.3619H44.42V35.24H40.1909Z" fill="#00060C"/>
<path d="M23.7334 43.76V39.408H24.3222V43.76H23.7334ZM22.2422 39.9072V39.408H25.8134V39.9072H22.2422ZM27.6701 43.76V42.1536H28.2589V43.76H27.6701ZM26.7677 39.408L27.7853 41.2192L28.0157 41.6992H27.9581L28.1757 41.2192L29.1933 39.408H29.8205L28.2589 42.1536H27.6701L26.1085 39.408H26.7677ZM30.418 43.76V39.408H31.0068V43.76H30.418ZM31.9156 42.1728H30.8404V41.6928H31.8836C32.2079 41.6928 32.4596 41.6117 32.6388 41.4496C32.818 41.2875 32.9076 41.0677 32.9076 40.7904C32.9076 40.5131 32.818 40.2933 32.6388 40.1312C32.4596 39.9691 32.2143 39.888 31.9028 39.888H30.8404V39.408H31.9092C32.2377 39.408 32.5215 39.4635 32.7604 39.5744C33.0036 39.6853 33.1892 39.8432 33.3172 40.048C33.4495 40.2528 33.5156 40.4981 33.5156 40.784C33.5156 41.2235 33.3705 41.5648 33.0804 41.808C32.7903 42.0512 32.402 42.1728 31.9156 42.1728ZM34.268 43.76V39.408H34.8568V43.76H34.268ZM34.6904 43.76V43.28H37.2184V43.76H34.6904ZM34.6904 39.888V39.408H37.2184V39.888H34.6904ZM34.6904 41.744V41.264H36.9816V41.744H34.6904ZM39.2805 43.76V39.408H39.8693V43.76H39.2805ZM40.868 43.76V39.408H41.4568V43.76H40.868Z" fill="#F2F2F2"/>
<defs>
<linearGradient id="paint0_linear_606_5908" x1="45.9692" y1="5.82156" x2="10.2397" y2="55.0399" gradientUnits="userSpaceOnUse">
<stop stop-color="white"/>
<stop offset="1" stop-color="white"/>
</linearGradient>
<linearGradient id="paint1_linear_606_5908" x1="45.9692" y1="5.82156" x2="10.2397" y2="55.0399" gradientUnits="userSpaceOnUse">
<stop stop-color="white"/>
<stop offset="1" stop-color="white"/>
</linearGradient>
<linearGradient id="paint2_linear_606_5908" x1="45.9692" y1="5.82156" x2="10.2397" y2="55.0399" gradientUnits="userSpaceOnUse">
<stop stop-color="white"/>
<stop offset="1" stop-color="white"/>
</linearGradient>
</defs>
</svg>
