<svg xmlns="http://www.w3.org/2000/svg" viewBox="0 0 86 24">
  <g transform="translate(0 4)">
    <path d="M 0 15.556 L 0 0.438 L 5.215 0.438 L 5.215 2.028 L 5.271 2.028 C 6.627 0.678 8.071 0 9.604 0 C 10.672 -0.006 11.727 0.226 12.694 0.68 C 13.636 1.11 14.405 1.847 14.875 2.77 C 16.406 0.925 18.078 0.001 19.889 0.001 C 21.5 0.001 22.884 0.452 24.042 1.355 C 25.198 2.258 25.778 3.673 25.778 5.598 L 25.778 15.557 L 20.563 15.557 L 20.563 7.013 C 20.563 6.207 20.34 5.533 19.896 4.993 C 19.455 4.45 18.793 4.18 17.91 4.18 C 17.146 4.18 16.562 4.412 16.16 4.874 C 15.756 5.339 15.521 5.926 15.493 6.541 L 15.493 15.555 L 10.278 15.555 L 10.278 7.013 C 10.278 6.207 10.056 5.533 9.611 4.993 C 9.171 4.45 8.511 4.18 7.632 4.18 C 6.826 4.18 6.222 4.433 5.819 4.937 C 5.417 5.437 5.215 6.03 5.215 6.714 L 5.215 15.554 L 0 15.554 Z" fill="#1a1a1a"></path>
    <path d="M 36.105 0 C 38.635 0 40.771 0.757 42.507 2.271 C 44.247 3.781 45.118 5.694 45.118 8.013 C 45.118 10.329 44.268 12.239 42.57 13.743 C 40.87 15.248 38.716 16 36.105 16 C 33.391 16 31.195 15.255 29.514 13.763 C 27.837 12.269 27 10.352 27 8.013 C 27 5.677 27.872 3.756 29.618 2.257 C 31.368 0.753 33.53 0 36.105 0 Z M 36.073 3.573 C 34.827 3.573 33.78 3.993 32.933 4.827 C 32.09 5.657 31.67 6.721 31.67 8.018 C 31.67 9.315 32.073 10.375 32.881 11.192 C 33.688 12.012 34.751 12.421 36.073 12.421 C 37.346 12.421 38.393 12.005 39.213 11.175 C 40.029 10.34 40.44 9.287 40.44 8.018 C 40.44 6.721 40.018 5.658 39.177 4.827 C 38.334 3.992 37.301 3.573 36.073 3.573 Z" fill="#ff2929"></path>
    <path d="M 46 15.556 L 46 0.438 L 51.215 0.438 L 51.215 2.028 L 51.271 2.028 C 52.627 0.678 54.071 0 55.604 0 C 56.349 0 57.09 0.1 57.826 0.299 C 58.572 0.498 59.286 0.805 59.944 1.209 C 60.625 1.622 61.175 2.205 61.597 2.959 C 62.017 3.714 62.229 4.594 62.229 5.597 L 62.229 15.556 L 57.015 15.556 L 57.015 7.013 C 57.015 6.226 56.765 5.539 56.265 4.95 C 55.765 4.358 55.112 4.062 54.307 4.062 C 53.518 4.062 52.807 4.367 52.167 4.978 C 51.532 5.586 51.217 6.263 51.217 7.013 L 51.217 15.555 L 46.001 15.555 Z" fill="#1a1a1a"></path>
    <path d="M 35.948 11.773 L 35.823 11.773 C 35.823 10.752 35.442 9.859 34.677 9.094 C 33.915 8.332 33.022 7.949 32 7.949 L 32 7.825 C 33.022 7.825 33.915 7.441 34.677 6.677 C 35.442 5.91 35.823 5.019 35.823 4 L 35.949 4 C 35.949 5.022 36.33 5.915 37.094 6.68 C 37.859 7.441 38.75 7.825 39.774 7.825 L 39.774 7.949 C 38.752 7.949 37.859 8.332 37.094 9.094 C 36.33 9.859 35.949 10.752 35.949 11.774 Z" fill="#ff2929"></path>
    <path d="M 63.501 15.618 L 68.716 15.618 L 68.716 8.088 L 75.396 15.646 L 81.527 15.646 L 74.847 8.087 L 81.527 0.529 L 75.397 0.529 L 68.717 8.087 L 68.717 0.5 L 63.5 0.5 L 63.5 15.618 Z" fill="#1a1a1a"></path>
  </g>
</svg>
